<?xml version="1.0" encoding="UTF-8"?>
<svg width="28px" height="28px" viewBox="0 0 28 28" version="1.1" xmlns="http://www.w3.org/2000/svg">
    <!-- Generator: Sketch 57.1 (83088) - https://sketch.com -->
    <title>icons2/28/nav_globe_grey</title>
    <desc>Created with Sketch.</desc>
    <g id="icons2/28/nav_globe_grey" stroke="none" stroke-width="1" fill="none" fill-rule="evenodd">
        <g id="around" fill="currentColor" fill-rule="nonzero">
            <path d="M26.8666823,9.6382768 C24.6028304,2.4068538 16.8797973,-1.63437037 9.64695517,0.628553606 C2.41504094,2.89240546 -1.62667446,10.6172943 0.636740741,17.8487173 L1.5254269,17.5703548 C-0.584834308,10.8291228 3.18315789,3.62744639 9.92531774,1.51674854 C13.1914386,0.494939571 16.6600546,0.80588694 19.6910955,2.39195322 C22.723501,3.97894737 24.9561871,6.65100975 25.9784873,9.91669396 C27.0002963,13.1823236 26.6897856,16.6505029 25.1032827,19.6824717 C23.5172164,22.7148772 20.845154,24.9475634 17.5790331,25.9698635 C12.1123743,27.6806472 6.12015595,25.5201715 3.00347758,20.7150331 L2.22231579,21.2215439 C4.79853411,25.1943236 9.20796101,27.4819181 13.7789474,27.481427 C15.1382846,27.481427 16.5129591,27.2793684 17.8569591,26.8576218 C21.3600156,25.7613099 24.2262768,23.366191 25.9282183,20.1140429 C27.6301598,16.8618402 27.9629942,13.1413879 26.8666823,9.6382768 Z"
                  id="Path"></path>
            <path d="M11.0537232,6.51739571 L11.3209513,5.6254347 L6.66569201,4.22887329 C6.50276803,4.17953216 6.32445224,4.22423392 6.20295517,4.34573099 L5.27191423,5.27677193 C5.16346199,5.38522417 5.11548538,5.54023392 5.1434308,5.69109552 C5.17137622,5.84190253 5.27191423,5.96902144 5.41202339,6.03140741 L9.60176218,7.89348928 L9.97978947,7.04251852 L6.4097076,5.45552437 L6.66481871,5.20041326 L11.0537232,6.51739571 Z"
                  id="Path"></path>
            <path d="M15.3780056,3.74430409 C15.3780056,3.48733723 15.1698869,3.27878363 14.9124834,3.27878363 C14.9119922,3.27878363 14.9119922,3.27878363 14.9115556,3.27878363 C13.8873996,3.27878363 12.9242105,3.6777154 12.1998674,4.40211306 L8.25224951,8.34929435 L6.6457154,7.94752437 C6.48699415,7.90795322 6.31937622,7.95401949 6.20344639,8.06994932 L5.27240546,9.00099025 C5.17093957,9.10245614 5.12159844,9.24491228 5.13928265,9.38693177 C5.15696686,9.52889669 5.23889279,9.65552437 5.36180897,9.72909942 L7.58980117,11.0660585 L8.92676023,13.2940507 C9.00033528,13.4169669 9.12647173,13.4988928 9.26892788,13.516577 C9.28753996,13.518924 9.30664327,13.5198519 9.32574659,13.5198519 C9.44817154,13.5198519 9.56688499,13.4714386 9.65536062,13.3839454 L10.5864016,12.4529045 C10.7018402,12.3369747 10.7483977,12.1694113 10.7088265,12.0106355 L10.3075478,10.4059571 L14.3180429,6.43503314 C15.0023236,5.71854971 15.3789318,4.77730214 15.3780056,3.74430409 Z M9.46350877,9.93017544 C9.34665107,10.045614 9.29965692,10.2141598 9.33922807,10.373809 L9.74099805,11.9803431 L9.41793372,12.3034074 L8.32811696,10.4869552 C8.28854581,10.4212943 8.23407407,10.366386 8.16846784,10.327306 L6.35201559,9.23748928 L6.67507992,8.91442495 L8.28161404,9.31619493 C8.44033528,9.35576608 8.60795322,9.30969981 8.72388304,9.19376998 L12.857731,5.05992203 C13.2860273,4.63118908 13.8250682,4.35326316 14.4097934,4.25223392 C14.3176062,4.82762573 14.0555088,5.36109942 13.6533021,5.78240936 L9.46350877,9.93017544 Z"
                  id="Shape"></path>
            <path d="M14.4269318,12.0515712 L13.0303704,7.33583626 L12.1374815,7.6002807 L13.44977,12.0311579 L13.1672047,12.2807018 L11.6151423,8.68032749 L10.7599688,9.04902144 L12.5662144,13.2387602 C12.6253255,13.3756491 12.746386,13.4761871 12.8920624,13.5087719 C12.9260663,13.5161949 12.9600156,13.519961 12.9940195,13.519961 C13.1062378,13.519961 13.2160546,13.479462 13.3017466,13.4035945 L14.2886784,12.5330838 C14.4245848,12.4132788 14.4781287,12.2256842 14.4269318,12.0515712 Z"
                  id="Path"></path>
            <path d="M8.87507212,25.6686316 C5.55961014,27.2397427 2.95872125,27.442729 1.74091228,26.2254113 C-0.369785575,24.1147135 1.92244834,17.982386 7.07253801,11.9603665 L6.36495127,11.3551735 C0.716319688,17.9600078 -1.4562729,24.3455906 1.08223002,26.8836569 C1.79123587,27.5921715 2.792577,27.9455283 4.0345653,27.9455283 C5.48232359,27.9455283 7.25691228,27.4655984 9.27356725,26.5098324 L8.87507212,25.6686316 Z"
                  id="Path"></path>
            <path d="M24.6335595,16.093232 C24.5525614,15.9419337 24.394768,15.8474542 24.2229474,15.8474542 L22.6485614,15.8474542 L21.3804834,13.3117349 C21.3013411,13.1539415 21.1402729,13.0542768 20.9638129,13.0542768 L16.3085536,13.0542768 C16.0510955,13.0542768 15.8430331,13.2628304 15.8430331,13.5197973 L15.8430331,17.2440156 C15.8430331,17.5014737 16.0511501,17.7095361 16.3085536,17.7095361 L17.705115,17.7095361 L17.705115,22.8303158 C17.705115,23.0877739 17.9131774,23.2958363 18.1706355,23.2958363 L20.4982378,23.2958363 C20.6215906,23.2958363 20.7398674,23.2469318 20.8278519,23.1589474 L22.6899337,21.2968655 C22.7774269,21.209809 22.8263314,21.0915867 22.8263314,20.9677427 L22.8263314,19.2466979 L24.6101988,16.5708694 C24.7052242,16.4284133 24.7145575,16.2445302 24.6335595,16.093232 Z M21.9730682,18.8477661 C21.922308,18.9241248 21.8948538,19.0144016 21.8948538,19.106152 L21.8948538,20.7755088 L20.3055673,22.3647953 L18.6362105,22.3647953 L18.6357193,22.3647953 L18.6357193,17.2440156 C18.6357193,16.9865575 18.4276569,16.7784951 18.1701988,16.7784951 L16.7736374,16.7784951 L16.7736374,13.9853723 L20.6756803,13.9853723 L21.9437583,16.5210916 C22.0229006,16.678885 22.1839688,16.7785497 22.3603743,16.7785497 L23.3528733,16.7785497 L21.9730682,18.8477661 Z"
                  id="Shape"></path>
            <path d="M24.9580429,12.1232359 L23.2300117,9.09918129 C23.1471579,8.95394152 22.9925848,8.86453801 22.8259493,8.86453801 L20.0328265,8.86453801 C19.8773255,8.86453801 19.7320858,8.94226121 19.6455205,9.07167251 L18.8527329,10.2610994 L17.7052242,10.2610994 L17.7052242,7.93349708 L20.0328265,7.93349708 C20.1566706,7.93349708 20.2744561,7.88459259 20.3619493,7.79709942 L22.0876335,6.0714152 L24.2225107,6.0714152 L24.2225107,5.14037427 L21.8949084,5.14037427 C21.7710643,5.14037427 21.6532788,5.18927875 21.5657856,5.27677193 L19.8401014,7.00245614 L17.2397037,7.00245614 C16.9822456,7.00245614 16.7741832,7.21100975 16.7741832,7.46797661 L16.7741832,10.7266199 C16.7741832,10.9835867 16.9823002,11.1921404 17.2397037,11.1921404 L19.1017856,11.1921404 C19.2572865,11.1921404 19.4025263,11.1144172 19.4890916,10.9850058 L20.2818791,9.79557895 L22.5559922,9.79557895 L24.2840234,12.8196335 C24.3668772,12.9648733 24.5214503,13.0542768 24.6880858,13.0542768 L26.5501676,13.0542768 L26.5501676,12.1232359 L24.9580429,12.1232359 Z"
                  id="Path"></path>
            <path d="M13.5154308,16.7784951 L10.9150331,16.7784951 L9.6548694,15.5183314 C9.56781287,15.4307836 9.44909942,15.3819337 9.32574659,15.3819337 L6.99814425,15.3819337 C6.74117739,15.3819337 6.53262378,15.5900507 6.53262378,15.8474542 L6.53262378,19.1060975 C6.53262378,19.3635556 6.74117739,19.5716179 6.99814425,19.5716179 L8.86022612,19.5716179 L8.86022612,24.2268772 C8.86022612,24.4033372 8.95983626,24.5644055 9.11768421,24.6434932 C9.18334503,24.676078 9.25500975,24.6923977 9.32580117,24.6923977 C9.42448343,24.6923977 9.52272904,24.661232 9.60509162,24.5992827 L11.4671735,23.2027212 C11.5844678,23.1147368 11.6534035,22.9764834 11.6534035,22.8303158 L11.6534035,21.6572086 L13.8064561,19.9352359 C13.9167641,19.8468148 13.9810058,19.7132008 13.9810058,19.5716725 L13.9810058,17.2440702 C13.9810058,16.9866121 13.7723977,16.7784951 13.5154308,16.7784951 Z M13.0499103,19.3482183 L10.8968577,21.070191 C10.7865497,21.1586667 10.722308,21.2922261 10.722308,21.4337544 L10.722308,22.5975828 L9.79126706,23.2958908 L9.79126706,19.106152 C9.79126706,18.848694 9.58271345,18.6406316 9.32574659,18.6406316 L7.46366472,18.6406316 L7.46366472,16.3130292 L9.13302144,16.3130292 L10.3931852,17.573193 C10.4802417,17.6606862 10.5989552,17.7095906 10.722308,17.7095906 L13.0499103,17.7095906 L13.0499103,19.3482183 L13.0499103,19.3482183 Z"
                  id="Shape"></path>
            <path d="M4.13837817,10.0214347 L2.74181676,7.69383236 C2.65803509,7.5537232 2.50624561,7.46803119 2.34288499,7.46803119 L1.87736452,7.46803119 L1.87736452,8.39907212 L2.079423,8.39907212 L3.15341131,10.1889981 L2.01381676,11.3285926 C1.92626901,11.4156491 1.8774191,11.5343626 1.8774191,11.6577154 L1.8774191,13.0542768 L0.480748538,13.0542768 L0.480748538,13.9853177 L2.34283041,13.9853177 C2.59979727,13.9853177 2.80835088,13.7767641 2.80835088,13.5197973 L2.80835088,11.8504405 L4.06851462,10.5902768 C4.21937622,10.4389786 4.24824951,10.2048265 4.13837817,10.0214347 Z"
                  id="Path"></path>
            <path d="M14.446963,0.485169591 L14.446963,1.05308382 L12.9372554,1.43061988 C12.8855673,1.44366472 12.8362261,1.46555166 12.7920156,1.4948616 L11.6202729,2.27602339 L9.06872515,1.00003119 L8.65210916,1.83282651 L11.445232,3.22938791 C11.5108928,3.26197271 11.5821209,3.2782924 11.6533489,3.2782924 C11.7436803,3.2782924 11.8335205,3.25176608 11.9112437,3.20007797 L13.2407797,2.31373879 L15.0251384,1.86775828 C15.2322729,1.81607018 15.3780039,1.62989474 15.3780039,1.41621053 L15.3780039,0.485169591 L14.446963,0.485169591 Z"
                  id="Path"></path>
        </g>
    </g>
</svg>
